<svg class="tree" data-name="Layer 1" xmlns="http://www.w3.org/2000/svg" viewBox="0 0 612 433.24"><path fill="rgba(25,7,13,.7)" d="M270.42 432.87c11.11-1.95 14.15-10.33 14.71-19.49a284.33 284.33 0 000-34.7c-.59-9.69-5.58-17.67-13.71-23.07-13.87-9.22-28.55-17.1-45-20.38-8.1-1.62-16.68-1.59-25-1.23-14.33.62-28.63 1.92-42.91 3.31a19.36 19.36 0 00-9.41 3.43c-7.91 6-17.21 7.67-26.42 10.12-7.89 2.1-15.48 5.33-23.2 8.06l-4.33 1.52-1-1.1c.85-1.24 1.44-3.1 2.61-3.6 7.08-3 14.22-6 21.48-8.56 4.65-1.66 9.76-2.14 14.26-4.08 8-3.45 15.7-7.6 24.12-11.76-1.82-.64-3.78-1.69-5.86-2-10.74-1.58-21.52-3-32.28-4.43-2.33-.31-4.68-.47-7-.92-4.21-.83-6.68 1.16-8.34 4.74-1.17 2.53-2.31 5.09-3.65 7.53-2.81 5.15-5.66 6.32-12.44 4.86a49.18 49.18 0 003.77-5.34 46.69 46.69 0 002.21-5.9c-2-.62-4.06-1.94-6-1.73-10.62 1.16-21.2 2.69-31.8 4.12-3.11.42-6.22.94-9.32 1.42l-.57-1.55c1.49-.69 2.92-1.73 4.48-2 12.69-2.32 25.42-4.45 38.12-6.73a62.5 62.5 0 0011.79-3.27c-11.46-6.46-23.79-9.8-36.22-13.08-12.94-3.42-25.38.93-38 2l-.26-1.11 19-7.32-20.09-12.92 1-1.92c19.12 8.91 38.21 17.9 59.24 22.63l-11-10.9.9-1.38a54.82 54.82 0 015.95 2.71 175 175 0 0050.32 20.48 63 63 0 008.12.87l1-1.5-28.84-30.48 1-1.23a48.92 48.92 0 015 3.44q10.94 9.56 21.73 19.29c11.09 10 24.66 13.84 39 15.2 6.69.63 13.47.37 20.21.3 2.07 0 4.14-.75 7.4-1.39-8.18-9.11-17-15.49-26.11-21.5-9.7-6.38-21.21-3.07-31.6-6.36 7.85-3.66 16.7-1.32 25.51-4.1-5.69-6.16-11.78-10.92-19-13.09-13.28-4-26.48-9.25-40.68-8.64s-28.65 2-43 2.94a30.88 30.88 0 01-10.58-1 24 24 0 014.5-1.57c12.76-1.83 25.54-3.54 38.32-5.29a1.87 1.87 0 00.44 0l5.34-2.26c-1.19-1.58-2.05-3.67-3.62-4.66-6-3.75-12.17-7.08-18.22-10.69-3.9-2.33-8-4.51-11.46-7.37-5.18-4.22-10.58-4.49-16.87-3.3-7.59 1.44-15.37 1.91-23.08 2.57-1.09.09-2.29-1.1-3.44-1.69 1.29-.45 2.61-1.35 3.87-1.28 9.57.57 18.57-1.92 27.41-5 3.33-1.18 2-3.87.38-5.24a122 122 0 00-13.4-10.36c-3.17-2-7-2.95-10.47-4.55-2.58-1.19-5-2.68-7.54-4l.52-1.42 18.92 4.92-.88-9.64.91-.41c1.42 1.93 3 3.78 4.25 5.81 8.34 13.38 16.65 27.17 30.28 35.58 14.67 9.06 30.42 16.37 45.75 24.36 1 .54 2.46.31 4.87.56-1.66-4.49-2.75-8.23-4.37-11.71-7.39-15.88-15.83-31.19-27.46-44.41-12.49-14.2-27.86-23.1-47.18-24.45-4.87-.34-9.66-1.72-14.49-2.62l.21-2.05 29 1.95c-2.14-8.42-6.75-15.63-2.24-23.3l1.45-.35C72 161.77 73 163.37 73 165c.5 11.5 6.69 20.26 15.68 25.73 18.22 11.08 29.54 27.72 40.21 45.2q5.74 9.39 11.54 18.74c6.26 10.14 15.49 16.65 26.17 21.37a26.34 26.34 0 003.5.78l-10.26-38.7 1.51-.49 3.37 8.68c4.13 10.64 7.88 21.45 12.49 31.87s13 18 22 24.81c16.43 12.5 34 23 53.69 29.65a39.63 39.63 0 008.07 2c5.06.57 7.17-1.77 6.2-6.8-.61-3.15-1.77-6.19-2.58-9.3-.32-1.25-4-8.82-4.44-8.62a36 36 0 01-3.24-4.64q-3.31-6.7-6.25-13.58a23.34 23.34 0 00-13.48-13.16c-8.07-3.1-16.18-6.14-24.39-8.83-6.27-2-12.69-1.77-19.1-.05-4.2 1.12-8.53 1.78-12.8 2.64l-.53-1.53 19.2-7.75L177 239.91l1-1.29a42.39 42.39 0 015 3.12 167.58 167.58 0 0043.29 25.85 92.52 92.52 0 0012.52 4.14c4.22 1.06 5.64-.62 3.94-4.71a74.05 74.05 0 00-15.5-23.29c-8.76-9-17.54-18.08-25.65-27.68-8.28-9.81-13.64-12.11-26.06-8.76-5.37 1.45-10.63 3.32-16 4.82a67.38 67.38 0 01-7.08 1.23l-.52-1.34c1.9-1.14 3.76-2.35 5.7-3.41s3.88-1.94 7-3.47L150 201.66l.2-1.79c12.69-2 25.45.76 39.58.81-3.31-5-5.65-9.34-8.78-13-9.64-11.36-22.23-19.1-34.73-26.73a21.64 21.64 0 00-22.37-.6c-6.59 3.63-19.39.79-26.15-4.81 7.2.81 13.82 2.71 20.11 1.94s12.49-4.2 18.72-6.46l-.16-2c-3.26-1-6.47-2.16-9.77-3-10.18-2.54-18.85-7.57-26.9-14.33-8.41-7.06-17.65-13.11-26.43-19.74-2.62-2-4.91-4.4-7.35-6.62l.88-1.3 16.31 9.2L79 96.47l1.41-.63a33.23 33.23 0 012.69 4.39 88.9 88.9 0 0021.39 30.35c8.88 8.38 19.6 10.6 31.21 10.45 3.53 0 3.6-2.3 2.15-4.44-4.26-6.28-8.54-12.59-13.31-18.48-3.49-4.32-7.79-8-11.68-12a10.67 10.67 0 01-2.5-4c9 2.76 14.3 10.89 22.93 16.17-.22-2.58-.05-4.3-.54-5.8-2.23-6.82-4.49-13.64-7.11-20.32-.74-1.87-2.73-3.28-4.21-4.83-4.54-4.77-9.15-9.46-13.63-14.28-.67-.72-.8-2-1.18-3l1-.88 15.7 13.33-1.77-16.9L123 65c1.34 2.36 3.59 4.62 3.89 7.1 2.23 18.39 10.9 35 14.67 52.82 3.31 15.67 11.62 27.58 23.5 37.56a9 9 0 002.93 1.9c2.11.63 4.32.93 6.49 1.37.35-2.23 1.49-4.71.89-6.64a149.48 149.48 0 00-6.62-17.15c-2.63-5.8-5.76-11.37-8.68-17l1.58-1.15 10.21 11.44 1.23-.31a97.59 97.59 0 01.05-10.26C175 107 168 92.21 158.35 78.32a19.21 19.21 0 00-4.83-4.32c-5.38-3.78-10.24-8-13.46-13.74l.89-1.41 12.43 6-11.16-25.41 1.32-.75a30.12 30.12 0 013.21 4.21c7.18 13.78 14.22 27.64 21.42 41.4 1.56 3 3.63 5.69 5.47 8.53l2-.64c-.17-2.89 0-5.87-.59-8.66-2.76-12.59-5.89-25.1-8.57-37.71-.77-3.64-.49-7.5-.73-11.79l4 1.29 1.91-3.83c.38.55.85.92.91 1.34 1.5 11 3.32 22.06 4.35 33.14 2.56 27.45 4.77 54.93 7.08 82.4 1.5 17.74 5.74 34.39 17.95 48.2 3.87 4.38 6.88 9.51 10.5 14.13 4.62 5.88 9.3 11.75 14.3 17.31 2.36 2.63 5.53 4.53 9.06 7.34.21-2.28.43-3.37.39-4.46-1.17-32.42-2.28-64.84-3.63-97.26-.25-6-1.45-11.93-2.24-17.89a16 16 0 00-6.55-11.05c-8.69-6.51-17.45-12.93-26.05-19.55a20.83 20.83 0 01-5.34-6.59c8.41 1.27 12.91 9.41 21.47 10.74a71.47 71.47 0 01-4.65-7c-.62-1.19-.29-2.87-.38-4.33 1.28.54 3 .74 3.77 1.69 4.7 5.63 9.14 11.48 13.77 17.17a56.86 56.86 0 005 4.65c.85-4 1.8-7 2.08-10.1 1.14-12.55 2.12-25.12 3.08-37.68a30.31 30.31 0 00-3.33-16.14c-3.81-7.64-6.2-15.7-5.74-24.55l7.8 16a53.81 53.81 0 003.14 6.29 26.42 26.42 0 003.83 3.86c1.27-1.34 3-2.47 3.73-4.06 3.62-7.79 7-15.7 10.74-24.29h3.81c-1.68 4.9-2.9 9.54-4.82 13.87-6.67 15-13 30.1-15.39 46.62a225.31 225.31 0 00-.09 61.44c.87 6.67 2.28 13.28 3.72 19.86.28 1.3 1.84 2.32 2.81 3.48 1-1 2.42-1.79 2.87-3 4.46-11.77 8.35-23.77 13.24-35.35 3.34-7.92 2.38-13.63-4-19.65-4.94-4.63-8.41-10.86-12.28-16.55-1.25-1.83-1.72-4.19-2.92-7.27 8.06 1.11 8.35 8 12.09 12.73L259.11 75c5.49 6.56 4.14 14.61 8.63 21.14 1.25-1.82 2.47-3 3-4.5 4.83-12.36 6.37-25.31 5.78-38.42-.16-3.56-2.17-7.25-4-10.48-3.46-6-5.17-12.24-3.82-20.12l9.76 20.75 3.59-4c2.07 5.59 1.63 12.45 8.21 16.33 3-14.35 12.65-26.74 8.83-42.12-.2-.81 0-1.72 0-4.21l5.77 5.29 6.86-4.66.93.88-9.78 24.23 1.36.84c8.63-3 16.19-7.47 20.14-16.47.94-2.15 1.44-4.48 2.42-6.61a12.25 12.25 0 012.41-2.71l1 .52v10.66l10.49-7.27.85.86a22.2 22.2 0 01-3.15 3.63c-9.51 7.12-19.14 14.08-28.64 21.22a78.63 78.63 0 00-8.63 7.48c-4.73 4.78-5.87 10.56-4.28 17.08.84 3.44 2.94 4.89 6.06 4.12a150.83 150.83 0 0016.74-5c5.29-2 8.66-6.13 11.36-11.13 2-3.79 5-7.13 7.81-10.44.83-1 2.59-1.15 3.93-1.69l.9 1.09c-1.17 1.72-2.27 3.5-3.53 5.16-2.57 3.39-5.3 6.65-7.77 10.11-.57.8-.86 2.7-.39 3.14a4.1 4.1 0 003.45.85 67 67 0 008-3.55c3.48-1.71 6.9-3.52 10.35-5.29l1.15 1.49c-1.43 1.27-2.64 3.06-4.31 3.74-11.11 4.52-22.31 8.83-33.5 13.15-3.55 1.37-7.47 2.09-10.63 4.06-2.39 1.49-5.22 4.34-5.49 6.83-1.13 10.67.87 21.19 2.59 31.66l1.55.83 26.33-28.38 1.39.94c-.78 1.71-1.28 3.64-2.4 5.09-7.63 9.86-15.51 19.53-23 29.49a12.41 12.41 0 00-2.44 7.46c.56 10.82 1.7 21.61 2.49 32.43.25 3.48 1.86 3.88 4.65 2.69 6.74-2.87 13.56-5.59 20.21-8.65a10.83 10.83 0 004-3.88c4.7-7 10.1-13.81 13.54-21.44 2.35-5.21 2.32-11.66 2.57-17.59.41-9.51.13-19 .28-28.57a46.53 46.53 0 011-6.6l1.93-.1c.6 3.1 1.67 6.2 1.71 9.31.19 13.65.09 27.3.09 41v1.76c.21 9.26.46 9.47 9.28 8 .38-.06.78.07.3 0-3.06 4.69-6.53 9.48-9.37 14.61-1.21 2.19-1.36 5.07-1.54 7.68a4 4 0 001.63 3.24 3.81 3.81 0 003.44-1c3.47-4 7.16-7.85 9.91-12.3 5.86-9.5 10.74-19.38 12.69-30.68 2.12-12.25 5.9-24.21 8-36.47A172.75 172.75 0 00393.7 54c0-3.7-2.14-7.41-3.28-11.12-.69-2.23-1.33-4.47-2.23-7.48 1.92.4 2.8.32 3.23.72 3.39 3.16 5.46 1.84 7.41-1.72.66-1.2 2.41-1.81 3.76-2.75.6 1.1.87 1.37.84 1.59-2.85 18.52-5.41 37.09-8.68 55.54-2.63 14.84-5.33 29.75-9.46 44.21-3.73 13-11.35 24.29-20.35 34.65C350.6 184.09 336.17 200.56 323 218c-9.81 13-13.82 28.85-15.26 44.92-1.4 15.6-1.64 31.31-1.95 47-.06 3 2 6 3 9.07 2.79-1.64 6.27-2.69 8.25-5 12.46-14.65 24.72-29.54 31.49-47.89 4.74-12.86 4-26.33 2.8-39.63-.82-9.46-2.64-18.84-4-28.26a13.18 13.18 0 01.14-2.42c4.3.66 3.78 4.31 4.71 7 .68 1.95 1.31 3.92 2 5.88 1.55-1.77 3.55-3.31 4.54-5.34 2-4.2 3.5-8.69 5.3-13a37.23 37.23 0 012.22-4l1.29.45c-.56 2.89-.89 5.84-1.73 8.65-4.8 16.2-9.35 32.43-8.22 49.61.09 1.39.19 2.77.36 5.17a28.94 28.94 0 002.49-2.91c11.21-18.65 23.42-36.59 38.07-52.75 6-6.58 9.6-14.4 12-22.79 7-24.83 11.33-50.07 10-76-.4-8-1.54-16.05-2.17-24.09-.25-3.25 0-6.54 0-9.81l2-.5c.71 1.46 1.88 2.87 2 4.38.64 6 .93 12 1.42 18 .16 2 .57 3.95.86 5.92l1.25.3c.86-1.67 2.07-3.26 2.52-5 2.8-11 5.4-22.14 8.16-33.2a39.25 39.25 0 012.11-5.23l1.81.4c-.21 3-.1 6.14-.69 9.1-2.12 10.64-4.42 21.24-6.77 31.83-1.71 7.72-3.66 15.39-5.41 23.1a17.81 17.81 0 00-.24 7.27l6.59-6.17 1.3.65c-.39 1.65-.42 3.52-1.24 4.93-8.91 15.27-12.15 32.26-15.19 49.32-.31 1.74 0 3.58 0 6.41 2.36-1.34 3.93-1.86 5-2.89C434 160.6 444.4 151.14 454 140.87c6.8-7.29 9.16-16.88 9.79-26.77.31-4.83.41-9.68 1-14.49a14.14 14.14 0 012.77-6.34c3.65 5.73-.12 11.75 1.56 18.24 7.88-3.33 12.25-10.75 20-13.88a47.58 47.58 0 01-2.75 4.44 30.55 30.55 0 01-4.4 4.91c-12.18 10.16-16.78 24.72-22.57 38.6a14 14 0 00-.32 3.29l17.85-6.92 1.1 1.74c-38.48 20-67.88 49.7-93.11 83.87l1 1.83c4-1.12 8.1-1.8 11.81-3.45a218.59 218.59 0 0019.58-9.84 118.69 118.69 0 0133.18-12.52 14.25 14.25 0 013 0l.57 1.13c-2.08 1.21-4 2.76-6.26 3.58-5.36 2-10.87 3.53-16.25 5.45a33 33 0 00-5 2.8l.33 1.66c2.94.36 5.92.5 8.8 1.13a54 54 0 019.11 2.86c.87.36 1.21 2 1.79 3-1.18.29-2.46 1-3.51.77-2.41-.56-4.65-2-7.07-2.35-4-.55-8.3-1.54-12-.51a135.35 135.35 0 00-39.14 18.71c-4.61 3.12-8.2 7.95-11.68 12.45-5.83 7.53-11.53 15.21-16.63 23.25-3.18 5-4.57 11.18-7.8 16.16-7.34 11.33-15.18 22.33-23.09 33.21-2.91 4-6.6 7.46-9.88 11.22a5.61 5.61 0 00-1.35 4c1.46-.38 3.1-.46 4.36-1.18 18-10.39 37.63-14.53 58.12-15.5 8.48-.4 14-4.55 17.56-12.36 5-11 9.48-22.42 17.74-31.77 1.92-2.18 2.21-5.9 3-9 1-4 1.5-8 2.49-12 .34-1.36 1.48-2.52 2.25-3.77l1.55.48-2.14 16.4 1.15 1.12 14.7-11.63 1.23 1.39c-6.23 9.33-16.43 15.15-24.16 24.91H435l.25.78c-2.67.75-5.31 1.65-8 2.2-4.16.84-8.38 1.34-12.55 2.16-8.36 1.65-15.41 12.62-13.85 22.45a67.49 67.49 0 006.95-3.63q28.77-19.54 57.44-39.22c12.06-8.28 17.41-21.07 22.33-34 8.88-23.37 10.39-47.7 9.17-72.38-.26-5.28-.42-10.57-.29-15.85a15 15 0 012.33-7.22c3.24 10.86-1.46 22.55 4.32 33.81 9.13-15 12.55-31.72 18.55-47.29l2 .59c-.2 1.91 0 3.95-.66 5.71-5.52 15.76-11.28 31.44-16.75 47.22-2.39 6.9-4.33 14-6.36 21a20.84 20.84 0 00-.36 4.14l1.25.82 31-29.94 1.09.84c-1.37 1.92-2.62 3.94-4.14 5.73-8.64 10.18-17.43 20.23-26 30.48-3.51 4.21-4.93 9.34-6.38 14.7-2.43 9-6.33 17.61-9.68 26.36-1.45 3.78-3.07 7.5-5.06 12.37a49.46 49.46 0 006.09-1.26c8.26-3 16.57-5.9 24.7-9.24 13.73-5.65 23.39-15.86 30.9-28.39 2.79-4.65 5.79-9.18 8.82-13.68a32.38 32.38 0 013.39-3.7l1.31.7a55 55 0 01-2.29 5.5c-2 3.73-4.42 7.28-6.26 11.1-.65 1.34-.13 3.25-.14 4.89 1.67 0 3.74.58 5-.18 5.08-3.15 9.92-6.68 14.81-10.13 4.06-2.87 8-6 12.12-8.69 1.52-1 3.62-1.07 5.45-1.56l.73 1.37c-1.57 1.37-3.13 2.75-4.73 4.09-5.79 4.87-11.51 9.82-17.44 14.51a31 31 0 01-6.92 3.73c-12.17 5.31-22 13.93-31.9 22.43-.27.23-.29.74-.73 1.94H539l.08 1.3c-6.05 1.2-12.19 2.09-18.14 3.68-8.9 2.38-17.67 5.22-26.48 7.92-5.31 1.63-10.51 3.74-15.91 5-14.26 3.2-26.51 9.93-37.4 19.55-8.14 7.19-16.61 14-25 20.89a38.6 38.6 0 01-4.77 2.91l1.29 2c5.17.53 10.34 1.31 15.52 1.52 7.48.31 15 .47 22.45.23a29.87 29.87 0 0021.14-9.53c2.45-2.54 4.91-5.08 7.58-7.36a11.58 11.58 0 015.26-2.27c-2.14 8.84-10.42 12.71-15.82 20.66 3.51-.32 5.93-.22 8.18-.79 11.08-2.8 22.17-5.62 33.16-8.75 7.42-2.11 13-7.05 18.25-12.58 6.44-6.84 13-13.53 19.67-20.2a43.26 43.26 0 014.65-3.6l1.12 1-18.37 24.33 1.07 1.33c2.33-1 4.83-1.62 7-2.92 12.24-7.49 24.37-15.17 36.59-22.7a68.72 68.72 0 016.59-3.18l1.15 1.65c-3.46 3.19-6.56 6.93-10.44 9.49-16.64 11-33.51 21.59-50.28 32.35-1.89 1.21-3.74 2.48-5.61 3.72l.21 1.68c3.89.73 7.76 1.54 11.66 2.18 7.95 1.29 15.93 2.39 23.86 3.78 2.17.38 4.22 1.52 6.32 2.31l-.36 1.46c-6.54-.92-13.08-1.79-19.61-2.76-10.72-1.6-21.39-3.59-32.16-4.81-7-.79-12.88 2.54-19.52 7.44a81.58 81.58 0 008 3.11c7.22 1.89 14.52 3.49 21.74 5.4a49.82 49.82 0 016.62 2.78l-.28 1.52c-1.69 0-3.48.35-5.07-.06-12.15-3.14-24.22-6.64-36.42-9.59a99.56 99.56 0 00-17.8-2.61c-25.06-1.37-50.14-3.28-75.21-3.32a237.25 237.25 0 00-45.85 4.9c-20.3 4-32.43 20-32.4 40.83 0 9.93.93 19.88 1.94 29.77a15.29 15.29 0 003.66 8.29c1.84 2 5.12 3.88 7.69 3.79 5.64-.21 10.78.49 15.63 3.36 2.24 1.33 4.13 2.14 6.42-.62 1-1.18 4.13-1.24 6-.76 1.3.33 2.14 2.46 3.19 3.79l-.73 1.28c-5.77-.11-76.3 0-88.64-.37zm-18.9-255.81c-6 5.95-7.16 37.49-3.07 63.76 3.49 22.38 29.63 82.29 38.07 86.51a55.67 55.67 0 001.67-5.38c4.95-24.12 6.17-48.55 5.78-73.09a9.38 9.38 0 00-2.2-5.45c-8-9.39-16.28-18.51-24.23-27.93-7.19-8.51-12.54-18.08-14.79-29.13-.57-2.78-.75-5.65-1.23-9.28zM264 144.24l2.27.14c.24 1.57 1 3.24.64 4.7-1.69 7.84-3.85 15.58-5.41 23.44-1.07 5.37-2.72 11.1-1.88 16.31 3.13 19.54 15.78 32.85 31.17 43.85 4.19 3 6.22 1.86 6.34-3.23.43-18 1.22-36.08.64-54.08-.32-9.68-2.37-19.5-5.05-28.85-3.73-13-14.47-21.8-21.74-32.71-.11-.17-.54-.13-1-.21a5.51 5.51 0 00-.91 1.36c-5 16.38-10 32.76-14.9 49.18-.53 1.79-.24 3.82-.34 5.74l1.15.45c.89-1 2.16-1.83 2.6-3 1.61-4.2 3.11-8.46 4.32-12.78.93-3.37 1.4-6.87 2.1-10.31zM312.1 214c2.3-2 3.58-2.95 4.62-4.09 6.43-7 12.86-14.08 19.19-21.2 8.36-9.41 14.16-20.1 15.66-32.79.19-1.62.16-3.95-.8-4.83-.79-.72-3.38-.26-4.7.5-8.39 4.82-16.93 9.44-24.81 15-4 2.83-8.18 7-9.77 11.41-4.1 11.39-1.32 23.07.61 36zM284.75 59.63l-2 .2a14 14 0 00-1.06 3.57c-.27 12.36-4.45 23.78-8 35.4-.88 2.87-.47 7.23 1.2 9.58a202.16 202.16 0 0016.08 19c2.2 2.39 4.4 1.34 4.56-2a50.39 50.39 0 00-.53-10.08q-3.27-20.82-6.92-41.57c-.81-4.73-2.2-9.4-3.33-14.1z"></path></svg>